<?xml version="1.0" standalone="no"?>
<!DOCTYPE svg PUBLIC "-//W3C//DTD SVG 20010904//EN"
 "http://www.w3.org/TR/2001/REC-SVG-20010904/DTD/svg10.dtd">
<svg version="1.0" xmlns="http://www.w3.org/2000/svg"
 width="740.000000pt" height="66.000000pt" viewBox="0 0 740.000000 66.000000"
 preserveAspectRatio="xMidYMid meet">

<g transform="translate(0.000000,66.000000) scale(0.100000,-0.100000)"
fill="#000000" stroke="none">
<path d="M3112 594 c-12 -8 -22 -21 -22 -29 0 -11 -7 -12 -32 -4 -46 14 -176
13 -229 -1 -63 -17 -129 -53 -163 -89 -36 -38 -49 -39 -66 -6 -34 64 -158 84
-248 39 -63 -31 -85 -67 -80 -132 l3 -46 -73 -17 c-40 -10 -105 -22 -144 -27
-68 -8 -73 -8 -95 14 -44 44 -17 124 41 124 43 0 58 -12 82 -64 l23 -51 0 41
c1 27 9 51 23 70 13 15 17 24 10 20 -8 -5 -22 -22 -33 -40 -12 -20 -19 -25
-19 -14 0 25 -48 58 -86 58 -24 0 -43 -9 -66 -30 -29 -28 -36 -30 -107 -29
-65 1 -71 2 -43 10 20 6 40 22 52 42 26 42 25 47 -8 47 -20 0 -41 -14 -77 -50
l-49 -50 -51 55 c-32 35 -59 55 -73 55 -42 0 -15 -63 39 -91 l34 -17 -102 0
c-75 0 -105 4 -114 14 -14 17 -33 18 -47 2 -8 -10 -92 -11 -399 -5 -258 6
-438 5 -536 -2 -142 -11 -150 -10 -174 9 -33 26 -66 11 -61 -28 4 -33 40 -42
67 -18 16 14 35 15 167 5 100 -7 278 -8 537 -2 307 6 391 5 399 -5 14 -16 33
-15 47 2 9 10 39 14 114 14 l102 0 -34 -17 c-54 -28 -81 -91 -39 -91 14 0 41
20 73 55 l51 55 49 -50 c36 -36 57 -50 77 -50 33 0 34 5 8 47 -12 20 -32 36
-52 42 -28 8 -22 9 43 10 l77 1 6 -34 c8 -41 51 -81 104 -96 61 -16 210 -12
270 9 43 15 61 16 97 8 33 -8 62 -7 108 2 97 20 97 20 112 -21 19 -55 41 -85
87 -118 55 -40 108 -53 193 -48 81 5 115 20 173 77 23 23 46 41 50 41 5 0 46
32 93 70 155 130 248 155 394 105 11 -3 7 2 -10 11 -16 10 -43 21 -60 26 -22
6 -17 6 20 3 51 -5 82 -25 71 -44 -5 -7 -50 -11 -122 -11 -88 0 -115 -3 -111
-12 5 -18 628 -19 634 -1 3 9 -25 13 -109 15 -105 3 -111 4 -88 18 17 10 52
15 105 15 100 0 154 -24 275 -125 47 -38 88 -70 92 -70 19 0 -178 174 -216
191 -55 24 -195 43 -256 34 -47 -7 -80 -28 -80 -52 0 -9 -13 -13 -40 -13 -33
0 -40 3 -40 20 0 40 -76 55 -204 41 -118 -14 -173 -42 -261 -131 -98 -102
-102 -103 -107 -30 -3 38 -11 66 -22 79 -10 11 -15 25 -11 30 10 18 67 44 110
52 39 6 38 7 -15 8 -38 1 -68 -5 -95 -19 -33 -17 -45 -18 -79 -9 -58 16 -121
3 -161 -33 -19 -16 -35 -37 -34 -47 0 -11 3 -9 9 6 21 51 135 83 190 53 16 -9
17 -13 4 -49 -16 -48 -9 -93 19 -118 21 -18 21 -18 4 7 -21 30 -21 53 -2 90
20 39 33 38 51 -6 17 -40 11 -92 -11 -101 -8 -2 -12 -10 -9 -17 7 -19 -64 -64
-122 -76 -84 -18 -171 9 -231 72 -40 42 -53 76 -53 139 0 153 184 270 386 244
46 -5 62 -13 88 -40 17 -18 42 -39 56 -45 21 -11 20 -9 -7 17 -44 41 -41 48 7
23 22 -11 40 -18 40 -15 0 2 -18 14 -40 25 -22 11 -40 26 -40 34 0 14 26 40
50 49 9 3 5 6 -10 6 -14 1 -36 -6 -48 -15z m-565 -104 c17 -10 36 -27 42 -38
9 -17 2 -22 -69 -47 l-80 -27 -29 31 c-33 36 -43 38 -62 14 -13 -16 -12 -17 3
-5 13 10 22 11 37 2 29 -15 27 -48 -4 -60 -64 -24 -74 -24 -85 5 -36 96 145
188 247 125z m53 -132 c-15 -48 -21 -54 -56 -65 -21 -6 -70 -12 -107 -12 l-69
-1 24 29 c16 20 49 39 107 60 46 17 86 29 89 26 3 -2 -3 -16 -13 -31 -9 -15
-12 -23 -6 -20 6 4 18 20 26 37 23 43 24 36 5 -23z m1265 38 c-22 -7 -50 -18
-62 -25 -16 -8 -23 -8 -23 -1 0 15 59 39 95 39 28 0 28 -1 -10 -13z m-1489
-81 c-23 -17 -36 -19 -36 -6 0 5 8 12 18 14 32 9 37 6 18 -8z m-61 -30 c0 -17
-77 -33 -155 -33 l-75 0 95 23 c99 24 135 27 135 10z"/>
<path d="M4246 596 c44 -19 50 -51 13 -67 -16 -6 -32 -16 -35 -21 -4 -5 8 -2
25 6 27 15 30 15 24 1 -3 -9 -22 -27 -42 -40 -19 -14 -32 -25 -27 -25 16 0 72
39 98 69 68 75 307 40 407 -60 47 -47 65 -87 65 -150 1 -45 -5 -65 -29 -104
-76 -121 -258 -148 -362 -52 -20 18 -21 21 -6 32 14 10 13 12 -8 11 -22 -1
-24 3 -27 49 -2 33 2 57 12 70 14 19 16 19 33 2 11 -11 18 -33 18 -62 0 -39 2
-43 13 -28 16 23 15 68 -3 103 -14 28 -14 30 6 41 13 6 47 9 82 7 52 -4 64 -9
88 -36 31 -34 36 -34 18 0 -13 25 -84 57 -125 58 -17 0 -45 -5 -62 -11 -27 -9
-39 -7 -75 10 -29 14 -61 21 -98 20 l-54 -1 46 -8 c51 -9 79 -21 98 -43 9 -12
7 -22 -9 -51 -15 -25 -21 -49 -19 -83 2 -43 8 -53 49 -94 31 -30 62 -50 94
-59 63 -17 170 -9 222 18 53 27 107 90 123 143 11 35 15 40 34 35 74 -22 139
-29 182 -19 36 8 54 7 97 -8 61 -21 210 -25 272 -8 48 13 94 57 102 98 l7 31
76 -1 c65 -1 71 -2 43 -10 -20 -6 -40 -22 -52 -42 -26 -42 -25 -47 8 -47 20 0
41 14 77 50 l49 50 51 -55 c32 -35 59 -55 73 -55 42 0 15 63 -39 91 l-34 17
102 0 c75 0 105 -4 114 -14 14 -17 33 -18 47 -2 8 10 92 11 399 5 259 -6 437
-5 537 2 132 10 151 9 167 -5 27 -24 63 -15 67 18 5 39 -28 54 -61 28 -24 -19
-32 -20 -174 -9 -98 7 -278 8 -536 2 -307 -6 -391 -5 -399 5 -14 16 -33 15
-47 -2 -9 -10 -39 -14 -114 -14 l-102 0 34 17 c54 28 81 91 39 91 -14 0 -41
-20 -73 -55 l-51 -55 -49 50 c-36 36 -57 50 -77 50 -33 0 -34 -5 -8 -47 12
-20 32 -36 52 -42 28 -8 22 -9 -43 -10 -71 -1 -78 1 -107 29 -23 21 -42 30
-66 30 -38 0 -86 -33 -86 -58 0 -11 -7 -6 -19 14 -11 18 -25 35 -33 40 -7 4
-3 -5 10 -20 14 -19 22 -43 22 -70 l1 -41 27 55 c25 50 30 55 64 58 70 6 105
-72 55 -122 -22 -22 -27 -22 -95 -14 -39 5 -104 17 -144 27 l-73 17 3 46 c5
65 -17 101 -80 132 -90 45 -214 25 -248 -39 -7 -14 -18 -25 -23 -25 -5 0 -31
20 -58 44 -79 71 -223 104 -355 82 -37 -6 -45 -4 -67 18 -16 16 -37 26 -54 26
l-28 -1 31 -13z m784 -108 c56 -29 86 -81 70 -123 -11 -29 -21 -29 -85 -5 -31
12 -33 45 -4 60 15 9 24 8 37 -2 15 -12 16 -11 3 5 -19 24 -29 22 -62 -14
l-29 -31 -80 27 c-71 25 -78 30 -69 47 31 58 139 76 219 36z m-120 -122 c50
-19 83 -38 98 -57 l24 -29 -69 1 c-99 1 -145 17 -155 54 -9 35 -1 68 15 62 7
-2 46 -16 87 -31z m141 -46 c5 0 9 -4 9 -10 0 -14 -13 -12 -36 6 -17 14 -17
15 -1 10 10 -3 23 -6 28 -6z m164 -46 l100 -24 -90 4 c-93 3 -151 18 -140 36
8 13 14 13 130 -16z"/>
<path d="M4810 373 c0 -6 8 -17 18 -24 16 -13 16 -13 2 6 -8 11 -16 22 -17 24
-2 2 -3 0 -3 -6z"/>
<path d="M3190 560 c-11 -7 -11 -11 -1 -24 25 -30 102 -15 101 19 0 5 -5 2
-11 -7 -6 -11 -22 -18 -41 -18 -25 0 -28 3 -19 14 14 17 -8 29 -29 16z"/>
<path d="M4185 560 c-3 -5 -3 -14 0 -20 4 -6 -6 -10 -24 -10 -16 0 -32 5 -34
10 -3 6 -4 5 -3 -2 3 -16 65 -22 85 -9 8 5 11 16 8 25 -7 18 -23 21 -32 6z"/>
<path d="M1452 493 c-19 -34 -15 -81 7 -93 28 -15 67 -12 81 5 10 13 10 19 -5
35 -10 11 -25 22 -35 25 -9 3 -22 15 -27 28 l-10 22 -11 -22z"/>
<path d="M5926 492 c-4 -11 -15 -24 -25 -27 -10 -3 -26 -14 -36 -25 -15 -16
-15 -22 -5 -35 14 -17 53 -20 81 -5 22 12 25 53 5 89 -13 24 -14 24 -20 3z"/>
<path d="M154 385 c-8 -19 3 -35 26 -35 19 0 30 17 23 38 -6 17 -42 15 -49 -3z"/>
<path d="M7197 387 c-8 -21 8 -39 29 -35 27 5 25 42 -2 46 -12 2 -24 -3 -27
-11z"/>
<path d="M1458 349 c-22 -12 -24 -67 -4 -94 13 -18 14 -18 20 3 4 11 15 24 25
27 10 3 26 14 36 25 15 16 15 22 5 35 -14 17 -57 19 -82 4z"/>
<path d="M5860 345 c-10 -13 -10 -19 5 -35 10 -11 26 -22 36 -25 10 -3 21 -16
25 -27 6 -21 7 -21 20 3 20 36 17 77 -5 89 -28 15 -67 12 -81 -5z"/>
<path d="M3320 320 c-8 -5 -12 -12 -9 -15 4 -3 12 1 19 10 14 17 11 19 -10 5z"/>
<path d="M4084 312 c4 -7 2 -21 -5 -30 -12 -15 -11 -15 6 0 16 15 17 20 6 30
-11 11 -13 10 -7 0z"/>
<path d="M3430 275 l0 -35 273 0 274 0 -1 35 -1 35 -272 0 -273 0 0 -35z m65
6 c3 -5 1 -13 -5 -16 -15 -9 -43 3 -35 15 8 13 32 13 40 1z m90 0 c3 -5 1 -13
-5 -16 -15 -9 -43 3 -35 15 8 13 32 13 40 1z m88 -6 c1 -5 -6 -11 -15 -13 -11
-2 -18 3 -18 13 0 17 30 18 33 0z m95 3 c-7 -19 -38 -22 -38 -4 0 10 9 16 21
16 12 0 19 -5 17 -12z m90 0 c-7 -19 -38 -22 -38 -4 0 10 9 16 21 16 12 0 19
-5 17 -12z m90 0 c-3 -7 -11 -13 -18 -13 -7 0 -15 6 -17 13 -3 7 4 12 17 12
13 0 20 -5 18 -12z"/>
</g>
</svg>
